/* XPM */
static char * glbsp_icon[] = {
"32 32 16 1",
" 	c None",
".	c #000000",
"+	c #1C1C0B",
"@	c #115385",
"#	c #313520",
"$	c #27260E",
"%	c #1A7BC2",
"&	c #E77609",
"*	c #733C03",
"=	c #A85504",
"-	c #7D7B23",
";	c #614B12",
">	c #71701C",
",	c #A09836",
"'	c #F9F875",
")	c #DAD83C",
"          ............          ",
"        ................        ",
"      .............+@@### $@@@$ ",
"     ..............+%%%%@.$%%%# ",
"    .................%%%...@%   ",
"   ..................@%%+..%#   ",
"  ...+&*#&&&$..*=*+**=-%@.#%.   ",
"  ....&*.&**&+*=.=.*&+&-%.@$..  ",
" .....&*.&*.&#=*.*+*&.=&%@%.... ",
" +&==*&*.&*+&$=&$..*&.=&%%@.... ",
".==+&.&*.&&==.*&&*.*&.=-%%+.....",
".==.&.&*.&**&$+*&&+*&=&#%%@.....",
".*&*=.&*.&*.&*$+*&**&..+%%%.....",
".+=$..&*.&*.&==++&**&..@%%%#....",
".*&==.&*.&*#&*=*$&$*&.+%$%%%....",
".+&&&*==*&&=*$;==;$==*@@.@%%+...",
".=*.=*...+++$##;##$+++%#.#%%@...",
".=*.=#...++$##;;;##$+#%+..%%%...",
".+==*....++$#;>->;##+%@...@%%#..",
"........++$$#;-,,>;#@%@+.+@%%%+.",
"........++$#;>,')-;#%%%@.@%%%%%.",
".........++$#>)''-;#$++.........",
" ........+$#;>)')-;#$++........ ",
" .......++$#;;-),>##$++........ ",
"  ......++$$#;>->;#$+++.......  ",
"  ......+++$$#;>;;#$++.......   ",
"   ......+++$##;###$++.......   ",
"    ......++$#####$$++......    ",
"     .....+++$$$$$$+++.....     ",
"      .....+++$$$++++....       ",
"        ....++++++++....        ",
"          ..+.+++++...          "};
